# This file uses centimeters as units for non-parametric coordinates.

mtllib Socle_Fusible_Proto.mtl
g default
v -4.574478 -0.711100 2.238898
v 4.574478 -0.711100 2.238898
v -4.574478 7.478000 1.359940
v 4.574478 7.478000 1.359940
v -4.574478 7.501518 -1.003136
v 4.574478 7.501518 -1.003136
v -4.574478 -0.734617 -1.003136
v 4.574478 -0.734617 -1.003136
v -3.900870 0.131149 2.148497
v 3.900870 0.131149 2.148497
v 3.900870 6.635753 1.450341
v -3.900870 6.635753 1.450341
v -3.900870 0.112468 0.359229
v 3.900870 0.112468 0.359229
v 3.900870 6.654433 0.359229
v -3.900870 6.654433 0.359229
vt 0.375000 0.000000
vt 0.625000 0.000000
vt 0.375000 0.250000
vt 0.625000 0.250000
vt 0.375000 0.500000
vt 0.625000 0.500000
vt 0.375000 0.750000
vt 0.625000 0.750000
vt 0.375000 1.000000
vt 0.625000 1.000000
vt 0.875000 0.000000
vt 0.875000 0.250000
vt 0.125000 0.000000
vt 0.125000 0.250000
vt 0.375000 0.000000
vt 0.625000 0.000000
vt 0.625000 0.250000
vt 0.375000 0.250000
vt 0.375000 0.000000
vt 0.625000 0.000000
vt 0.625000 0.250000
vt 0.375000 0.250000
vn 0.000000 0.000000 1.000000
vn 0.000000 0.000000 1.000000
vn 0.000000 0.000000 1.000000
vn 0.000000 0.000000 1.000000
vn 0.000000 0.999950 0.009952
vn 0.000000 0.999950 0.009952
vn 0.000000 0.999950 0.009952
vn 0.000000 0.999950 0.009952
vn 0.000000 0.000000 -1.000000
vn 0.000000 0.000000 -1.000000
vn 0.000000 0.000000 -1.000000
vn 0.000000 0.000000 -1.000000
vn 0.000000 -0.999974 0.007254
vn 0.000000 -0.999974 0.007254
vn 0.000000 -0.999974 0.007254
vn 0.000000 -0.999974 0.007254
vn 1.000000 0.000000 0.000000
vn 1.000000 0.000000 0.000000
vn 1.000000 0.000000 0.000000
vn 1.000000 0.000000 0.000000
vn -1.000000 0.000000 0.000000
vn -1.000000 0.000000 0.000000
vn -1.000000 0.000000 0.000000
vn -1.000000 0.000000 0.000000
vn 0.000000 0.106719 0.994289
vn 0.000000 0.106719 0.994289
vn 0.000000 0.106719 0.994289
vn 0.000000 0.106719 0.994289
vn 0.000000 0.106720 0.994289
vn 0.000000 0.106720 0.994289
vn 0.000000 0.106720 0.994289
vn 0.000000 0.106720 0.994289
vn 0.000000 0.106720 0.994289
vn 0.000000 0.106720 0.994289
vn 0.000000 0.106720 0.994289
vn 0.000000 0.106720 0.994289
vn -0.000000 0.106720 0.994289
vn -0.000000 0.106720 0.994289
vn -0.000000 0.106720 0.994289
vn -0.000000 0.106720 0.994289
vn 0.000000 0.999945 -0.010439
vn 0.000000 0.999945 -0.010439
vn 0.000000 0.999945 -0.010439
vn 0.000000 0.999945 -0.010439
vn -1.000000 0.000000 0.000000
vn -1.000000 0.000000 0.000000
vn -1.000000 0.000000 0.000000
vn -1.000000 0.000000 0.000000
vn 0.000000 -0.999853 -0.017118
vn 0.000000 -0.999853 -0.017118
vn 0.000000 -0.999853 -0.017118
vn 0.000000 -0.999853 -0.017118
vn 1.000000 0.000000 0.000000
vn 1.000000 0.000000 0.000000
vn 1.000000 0.000000 0.000000
vn 1.000000 0.000000 0.000000
s off
g pCube3
usemtl initialShadingGroup
f 13/19/1 14/20/2 15/21/3 16/22/4
f 3/3/5 4/4/6 6/6/7 5/5/8
f 5/5/9 6/6/10 8/8/11 7/7/12
f 7/7/13 8/8/14 2/10/15 1/9/16
f 2/2/17 8/11/18 6/12/19 4/4/20
f 7/13/21 1/1/22 3/3/23 5/14/24
f 1/1/25 2/2/26 10/16/27 9/15/28
f 2/2/29 4/4/30 11/17/31 10/16/32
f 4/4/33 3/3/34 12/18/35 11/17/36
f 3/3/37 1/1/38 9/15/39 12/18/40
f 9/15/41 10/16/42 14/20/43 13/19/44
f 10/16/45 11/17/46 15/21/47 14/20/48
f 11/17/49 12/18/50 16/22/51 15/21/52
f 12/18/53 9/15/54 13/19/55 16/22/56
